# xmcd
#
# Track frame offsets:
# 150
# 15285
# 38955
# 54382
# 75472
# 95620
# 113552
# 130517
# 152207
# 169227
# 186365
# 208545
#
# Disc length: 3036 seconds
#
#
# Revision: 2
# Processed by: cddbd v1.5.1PL0 Copyright (c) Steve Scherf et al.
# Submitted via: FreeRIP 2.90 
#
DISCID=8f0bda0c
DTITLE=Glenn Kaiser - You Made The Difference In Me
DYEAR=1998
DGENRE=Gospel
TTITLE0=More and More
TTITLE1=Diggin' My Own Grave
TTITLE2=Evidence
TTITLE3=Faith, Hope, and Love
TTITLE4=Troubled World
TTITLE5=Self-Control
TTITLE6=Wind Me Up
TTITLE7=Marry Me
TTITLE8=Nothin' but Love
TTITLE9=I Would Choose You
TTITLE10=You Make Me Happy
TTITLE11=It's a Beautiful Thing
EXTD=1998 Grrr Records\n920 W. Wilson Ave.\nChicago, IL 60640\nhttp://www.grrrrecords.com
EXTT0=
EXTT1=
EXTT2=
EXTT3=
EXTT4=
EXTT5=
EXTT6=
EXTT7=
EXTT8=
EXTT9=
EXTT10=
EXTT11=
PLAYORDER=
